Genre: Drama | Mystery | Thriller
Language:English
 
http://www.imdb.com/title/tt1462041/

Source:Russian DVD5/DTRG Thanks!

Format : AVI
Format/Info : Audio Video Interleave
File size : 700 MiB
Duration : 1h 20mn
Overall bit rate : 1 213 Kbps

Video
ID : 0
Format : MPEG-4 Visual
Format profile : Advanced Simple@L5
Format settings, BVOP : Yes
Format settings, QPel : No
Format settings, GMC : No warppoints
Format settings, Matrix : Default (H.263)
Muxing mode : Packed bitstream
Codec ID : XVID
Codec ID/Hint : XviD
Duration : 1h 20mn
Bit rate : 1 075 Kbps
Width : 624 pixels
Height : 262 pixels
Display aspect ratio : 2.35:1
Frame rate : 25.000 fps
Color space : YUV
Chroma subsampling : 4:2:0
Bit depth : 8 bits
Scan type : Progressive
Bits/(Pixel*Frame) : 0.263
Stream size : 620 MiB (89%)
Writing library : XviD 1.2.1 (UTC 2008-12-04)

Audio
ID : 1
Format : MPEG Audio
Format version : Version 1
Format profile : Layer 3
Codec ID : 55
Codec ID/Hint : MP3
Duration : 1h 20mn
Bit rate mode : Constant
Bit rate : 128 Kbps
Channel(s) : 2 channels
Sampling rate : 44.1 KHz
Video delay : 1ms
Stream size : 73.8 MiB (11%)
Alignment : Split accross interleaves
Interleave, duration : 40 ms (1.00 video frame)
Interleave, preload duration : 500 ms


Plot:
Soon after moving into their seemingly idyllic new home, a family learns of a brutal crime committed against former residents of the dwelling
 
http://img684.imageshack.us/img684/803/vlcsnap00004s.png
 
http://img707.imageshack.us/img707/3701/vlcsnap00002ja.png
 
http://img827.imageshack.us/img827/3794/vlcsnap00005ao.png
 
http://img836.imageshack.us/img836/3725/vlcsnap00003xa.png
